PathFileType	4	(X/Y/Z)	/Users/itak/Documents/Research/Walk-IL/dataset/trc/00455_00167.trc
DataRate	CameraRate	NumFrames	NumMarkers	Units	OrigDataRate	OrigDataStartFrame	OrigNumFrames
100.000000	100.000000	4	53	mm	100.000000	207	553
Frame#	Time	RPSI			LPSI			L3			STRN			T10			C7			CLAV			RBAK			LBAK			LSHO			LUPA			LAEL			LAOL			LWTS			LWPS			LFRA			LIFD			LHPS			LHTS			RSHO			RUPA			RAEL			RAOL			RWTS			RWPS			RFRA			RIFD			RHTS			RHPS			RBHD			LFHD			RFHD			LBHD			LHIP			RHIP			RASI			LASI			LKNE			LTHI			LANK			LTIP			LTOE			LMT1			LMT5			LHEE			RKNE			RTHI			RANK			RTIP			RTOE			RMT1			RMT5			RHEE			
		X1	Y1	Z1	X2	Y2	Z2	X3	Y3	Z3	X4	Y4	Z4	X5	Y5	Z5	X6	Y6	Z6	X7	Y7	Z7	X8	Y8	Z8	X9	Y9	Z9	X10	Y10	Z10	X11	Y11	Z11	X12	Y12	Z12	X13	Y13	Z13	X14	Y14	Z14	X15	Y15	Z15	X16	Y16	Z16	X17	Y17	Z17	X18	Y18	Z18	X19	Y19	Z19	X20	Y20	Z20	X21	Y21	Z21	X22	Y22	Z22	X23	Y23	Z23	X24	Y24	Z24	X25	Y25	Z25	X26	Y26	Z26	X27	Y27	Z27	X28	Y28	Z28	X29	Y29	Z29	X30	Y30	Z30	X31	Y31	Z31	X32	Y32	Z32	X33	Y33	Z33	X34	Y34	Z34	X35	Y35	Z35	X36	Y36	Z36	X37	Y37	Z37	X38	Y38	Z38	X39	Y39	Z39	X40	Y40	Z40	X41	Y41	Z41	X42	Y42	Z42	X43	Y43	Z43	X44	Y44	Z44	X45	Y45	Z45	X46	Y46	Z46	X47	Y47	Z47	X48	Y48	Z48	X49	Y49	Z49	X50	Y50	Z50	X51	Y51	Z51	X52	Y52	Z52	X53	Y53	Z53	

208	2.07	-894.4283447265625	913.3961791992188	-631.34814453125	-931.4337768554688	924.8477172851562	-767.9736328125	-892.8331298828125	1020.226745605469	-701.2424926757812	-601.0660400390625	1186.1181640625	-767.0293579101562	-895.3277587890625	1145.061767578125	-706.07861328125	-792.0955810546875	1401.772583007812	-705.7223510742188	-623.112060546875	1302.774291992188	-757.546875	-851.2835083007812	1285.590576171875	-605.2210693359375	-849.5645141601562	1364.311645507812	-797.7526245117188	-762.3933715820312	1379.618286132812	-897.531005859375	-804.4331665039062	1265.596923828125	-994.25390625	-814.5546264648438	1050.138916015625	-1036.054077148438	-886.3670043945312	1046.651977539062	-960.7047729492188	-776.2744140625	832.5452880859375	-1008.4609375	-830.4029541015625	832.35009765625	-1060.369140625	-813.0435791015625	960.5828247070312	-1051.250122070312	-809.741455078125	667.823974609375	-1028.776000976562	-840.60302734375	754.9737548828125	-1066.494262695312	-780.8233032226562	746.200927734375	-1026.5625	-701.7606811523438	1358.576782226562	-560.6631469726562	-720.4815673828125	1299.275756835938	-485.0930786132812	-762.379150390625	1019.541625976562	-421.2127075195312	-823.0271606445312	1015.130615234375	-451.5026245117188	-716.4974365234375	799.2994384765625	-485.8567199707031	-770.9224243164062	796.845703125	-415.471435546875	-768.1776123046875	960.60888671875	-411.4771118164062	-750.8743286132812	646.6795043945312	-476.5538940429688	-720.2899169921875	700.1866455078125	-473.76123046875	-772.7088623046875	709.6243896484375	-419.0763549804688	-697.3515625	1587.329833984375	-633.6578979492188	-557.1773071289062	1593.476806640625	-784.824462890625	-561.1221923828125	1591.178344726562	-654.5184936523438	-707.6422729492188	1596.708374023438	-810.5438842773438	-856.2247924804688	819.044677734375	-919.4481201171875	-724.4326171875	816.4151611328125	-538.4022827148438	-656.6688842773438	864.7382202148438	-633.30224609375	-730.3696899414062	842.3008422851562	-879.8985595703125	-960.133056640625	419.9177551269531	-852.8997192382812	-892.1045532226562	559.0438232421875	-893.1234130859375	-1231.107543945312	88.59970855712891	-767.7593383789062	-1049.715209960938	291.9462585449219	-841.2352294921875	-1004.870300292969	40.92668914794922	-707.7966918945312	-1071.00048828125	63.79387283325195	-682.758056640625	-1090.396484375	39.39715576171875	-789.9214477539062	-1255.299438476562	130.2702178955078	-702.3201293945312	-587.4142456054688	451.1204528808594	-637.6632690429688	-645.9449462890625	696.1832275390625	-553.8622436523438	-510.3780822753906	35.61036682128906	-695.209716796875	-538.5625610351562	318.0934448242188	-651.3104858398438	-308.7530517578125	81.69791412353516	-765.2725830078125	-375.0515441894531	74.86767578125	-795.681640625	-377.4921875	46.87891387939453	-693.3428955078125	-580.521484375	27.63126182556152	-733.9305419921875	
209	2.08	-884.634765625	915.5430908203125	-632.780517578125	-920.9602661132812	926.1765747070312	-769.6995239257812	-881.9286499023438	1022.109313964844	-702.637451171875	-589.2107543945312	1187.4443359375	-766.4132080078125	-884.3680419921875	1147.129516601562	-706.6875	-780.1516723632812	1403.377075195312	-705.0370483398438	-611.1536865234375	1304.086669921875	-756.7322387695312	-839.7589721679688	1287.135986328125	-604.9240112304688	-837.3440551757812	1366.255737304688	-797.3413696289062	-749.8849487304688	1381.461303710938	-896.9348754882812	-792.2056274414062	1267.480102539062	-993.5538940429688	-803.384033203125	1052.0341796875	-1034.904541015625	-874.603759765625	1048.664916992188	-959.0332641601562	-764.9746704101562	834.472412109375	-1007.4296875	-819.6585083007812	834.1710815429688	-1058.840209960938	-802.10986328125	962.4691772460938	-1050.027954101562	-798.8455810546875	669.6724853515625	-1027.216918945312	-829.9298706054688	756.7634887695312	-1064.749877929688	-769.8087768554688	748.1085815429688	-1025.312744140625	-689.9064331054688	1359.368408203125	-559.9374389648438	-708.5549926757812	1299.714599609375	-484.5783996582031	-750.3639526367188	1019.881164550781	-421.6437377929688	-811.2007446289062	1015.716918945312	-451.5652770996094	-704.7369384765625	799.7840576171875	-486.7594299316406	-759.0286865234375	797.2459716796875	-416.2765197753906	-756.1611938476562	960.93212890625	-412.0277099609375	-739.09765625	647.146728515625	-477.5035400390625	-708.6599731445312	700.6101684570312	-474.7420959472656	-760.686767578125	710.0361328125	-419.9004211425781	-686.5157470703125	1588.348022460938	-632.3072509765625	-545.2409057617188	1595.527465820312	-782.4351196289062	-550.1441650390625	1592.787963867188	-652.1625366210938	-695.5348510742188	1598.250122070312	-809.239990234375	-845.11474609375	819.8460693359375	-920.4573974609375	-714.3396606445312	819.1315307617188	-539.2633056640625	-646.434326171875	867.8536987304688	-633.7096557617188	-719.3549194335938	843.7401123046875	-880.4009399414062	-948.618896484375	420.4012756347656	-857.150634765625	-880.2374267578125	559.8033447265625	-895.8599243164062	-1227.067504882812	94.44915008544922	-771.1192626953125	-1041.30615234375	294.0863342285156	-845.5155029296875	-1004.927062988281	40.97500991821289	-708.0698852539062	-1069.5908203125	64.77445220947266	-684.0704345703125	-1089.672973632812	38.94799041748047	-790.5537109375	-1249.544921875	138.6566619873047	-706.8242797851562	-577.3945922851562	453.7852783203125	-639.8588256835938	-635.1373901367188	698.98974609375	-555.6776123046875	-509.6083068847656	36.4995002746582	-695.57666015625	-530.3876953125	319.3851928710938	-653.7722778320312	-306.7887268066406	76.91245269775391	-769.5285034179688	-374.0150756835938	71.44482421875	-798.33447265625	-376.1610107421875	46.56665420532227	-695.0819702148438	-579.9572143554688	28.48561477661133	-733.6864624023438	
210	2.09	-874.6559448242188	918.031005859375	-634.234619140625	-910.2308959960938	927.9044799804688	-771.4609375	-870.9354248046875	1024.371337890625	-703.9774169921875	-577.3090209960938	1189.158447265625	-765.6890869140625	-873.3140869140625	1149.562744140625	-707.3302612304688	-768.216552734375	1405.325073242188	-704.3976440429688	-599.187255859375	1305.77490234375	-755.8232421875	-828.2495727539062	1289.061279296875	-604.6676635742188	-825.0374145507812	1368.55224609375	-797.0096435546875	-737.1715698242188	1383.7197265625	-896.303955078125	-779.6346435546875	1269.869873046875	-992.932373046875	-791.9170532226562	1054.388305664062	-1033.696533203125	-862.5429077148438	1051.141357421875	-957.3348999023438	-753.295654296875	836.8464965820312	-1006.325622558594	-808.5602416992188	836.409423828125	-1057.217163085938	-790.8320922851562	964.8117065429688	-1048.744262695312	-787.58935546875	671.9273681640625	-1025.47021484375	-818.8910522460938	758.9641723632812	-1062.864624023438	-758.4403076171875	750.431640625	-1023.920715332031	-678.1270751953125	1360.582153320312	-559.2305908203125	-696.66748046875	1300.619750976562	-484.0548706054688	-738.2078247070312	1020.65087890625	-422.0740661621094	-799.2477416992188	1016.687683105469	-451.6049194335938	-692.7352905273438	800.7020263671875	-487.6989135742188	-746.8318481445312	798.0487670898438	-417.1038208007812	-743.9494018554688	961.682373046875	-412.5903930664062	-726.9916381835938	648.0294189453125	-478.5096740722656	-696.6944580078125	701.4619750976562	-475.7977905273438	-748.3397827148438	710.8539428710938	-420.7677917480469	-675.5861206054688	1589.627563476562	-630.9159545898438	-533.1162719726562	1597.760009765625	-779.924072265625	-539.059326171875	1594.562622070312	-649.6953125	-683.2405395507812	1600.094116210938	-807.896484375	-833.647705078125	820.8486328125	-921.3933715820312	-704.2228393554688	821.9829711914062	-540.0709838867188	-636.2223510742188	871.0971069335938	-634.0075073242188	-708.0695190429688	845.5121459960938	-880.7835083007812	-935.9884033203125	420.7479553222656	-862.039794921875	-867.4208374023438	560.6080322265625	-898.9248657226562	-1221.974609375	100.5046081542969	-774.7349243164062	-1031.891723632812	296.2352294921875	-850.37841796875	-1004.947448730469	40.98797988891602	-708.45654296875	-1067.81689453125	65.85880279541016	-685.5921630859375	-1088.862182617188	38.43769454956055	-791.2681884765625	-1242.4921875	147.5515289306641	-711.8412475585938	-567.51171875	456.5127563476562	-642.0836791992188	-624.2105102539062	701.9801025390625	-557.6791381835938	-508.93603515625	37.27444839477539	-695.8607177734375	-522.6241455078125	320.6637573242188	-656.1195068359375	-305.4873046875	72.78642272949219	-773.5593872070312	-373.439453125	68.53727722167969	-800.781494140625	-375.0950317382812	46.59035491943359	-696.7450561523438	-579.4819946289062	29.13723564147949	-733.3134155273438	
211	2.1	-864.4444580078125	920.730224609375	-635.6336669921875	-899.2677001953125	929.97412109375	-773.1594848632812	-859.8790283203125	1026.915405273438	-705.1774291992188	-565.4113159179688	1191.204345703125	-764.8687744140625	-862.1531372070312	1152.2421875	-707.9698486328125	-756.3602294921875	1407.539672851562	-703.814697265625	-587.2699584960938	1307.783203125	-754.8329467773438	-816.80029296875	1291.27197265625	-604.4584350585938	-812.7156372070312	1371.1171875	-796.753173828125	-724.327392578125	1386.33984375	-895.6382446289062	-766.7673950195312	1272.720092773438	-992.4083862304688	-780.165283203125	1057.1494140625	-1032.466918945312	-850.2211303710938	1054.02490234375	-955.6668701171875	-741.21484375	839.6181030273438	-1005.176208496094	-797.0775146484375	839.0100708007812	-1055.542358398438	-779.2029418945312	967.5563354492188	-1047.43603515625	-775.9535522460938	674.5353393554688	-1023.547180175781	-807.4553833007812	761.5254516601562	-1060.874877929688	-746.7057495117188	753.111083984375	-1022.411437988281	-666.5052490234375	1362.185546875	-558.5527954101562	-684.9144287109375	1301.976440429688	-483.5248107910156	-725.9782104492188	1021.826293945312	-422.4802551269531	-787.2179565429688	1017.992431640625	-451.628662109375	-680.5006103515625	802.04443359375	-488.6794738769531	-734.345458984375	799.2219848632812	-417.9623718261719	-731.5965576171875	962.8336791992188	-413.1461791992188	-714.5364990234375	649.3090209960938	-479.6063232421875	-684.3663940429688	702.7396240234375	-476.9514465332031	-735.6754760742188	712.0496826171875	-421.7034301757812	-664.611572265625	1591.124877929688	-629.5006103515625	-520.8616943359375	1600.095458984375	-777.3087768554688	-527.9231567382812	1596.429443359375	-647.1375122070312	-670.813720703125	1602.191162109375	-806.5294189453125	-821.8922119140625	822.0366821289062	-922.2315063476562	-694.03759765625	824.79541015625	-540.8322143554688	-625.9927368164062	874.2628173828125	-634.229736328125	-696.5765380859375	847.5802001953125	-881.0693969726562	-922.20068359375	420.9202575683594	-867.599609375	-853.681884765625	561.417236328125	-902.3915405273438	-1215.6103515625	106.6319274902344	-778.6098022460938	-1021.371520996094	298.3389892578125	-855.85888671875	-1004.871215820312	40.92284393310547	-708.9622802734375	-1065.584838867188	67.10977935791016	-687.3701171875	-1087.897338867188	37.88094711303711	-792.0772705078125	-1234.0107421875	156.8971099853516	-717.424560546875	-557.9896850585938	459.0670166015625	-644.3037719726562	-613.2971801757812	704.9095458984375	-559.8060302734375	-508.3561096191406	37.94939041137695	-696.1105346679688	-515.3599853515625	321.7982177734375	-658.3693237304688	-304.6701354980469	69.15531921386719	-777.2744140625	-373.1699523925781	66.00571441650391	-803	-374.2499694824219	46.81462478637695	-698.291259765625	-579.0958251953125	29.6413459777832	-732.8897094726562	
